HIERARCHY
ROOT Hips
{
	OFFSET 0.000000 0.000000 0.000000 
	CHANNELS 6 Xposition Yposition Zposition Yrotation Zrotation Xrotation 
	JOINT Lumbar
	{
		OFFSET 0.000000 0.000000 0.000000 
		CHANNELS 3 Zrotation Xrotation Yrotation
		JOINT Neck
		{
			OFFSET 0.000000 0.445665 0.000000 
			CHANNELS 3 Zrotation Xrotation Yrotation
			End Site
			{
				OFFSET 0.000000 0.227535 0.000000 
			}
		}
		JOINT RightShoulder
		{
			OFFSET 0.019635 0.377685 0.194865 
			CHANNELS 3 Zrotation Xrotation Yrotation
			JOINT RightElbow
			{
				OFFSET 0.000000 -0.243375 0.000000 
				CHANNELS 2 Zrotation Yrotation
				JOINT RightWrist
				{
					OFFSET 0.000000 -0.264825 0.000000 
					CHANNELS 2 Zrotation Xrotation
					End Site
					{
						OFFSET 0.006600 -0.176220 0.000990 
					}
				}
			}
		}
		JOINT LeftShoulder
		{
			OFFSET 0.019635 0.377685 -0.194865 
			CHANNELS 3 Zrotation Xrotation Yrotation
			JOINT LeftElbow
			{
				OFFSET 0.000000 -0.243375 0.000000 
				CHANNELS 2 Zrotation Yrotation
				JOINT LeftWrist
				{
					OFFSET 0.000000 -0.264825 0.000000 
					CHANNELS 2 Zrotation Xrotation
					End Site
					{
						OFFSET 0.006600 -0.176220 -0.000990 
					}
				}
			}
		}
	}
	JOINT RightHip
	{
		OFFSET 0.052140 -0.069960 0.075570 
		CHANNELS 3 Zrotation Xrotation Yrotation
		JOINT RightKnee
		{
			OFFSET 0.000000 -0.402270 0.000000 
			CHANNELS 1 Zrotation
			JOINT RightAnkle
			{
				OFFSET 0.000000 -0.404085 0.000000 
				CHANNELS 3 Zrotation Xrotation Yrotation
				End Site
				{
					OFFSET 0.204105 -0.089430 0.008415 
				}
			}
		}
	}
	JOINT LeftHip
	{
		OFFSET 0.052140 -0.069960 -0.075570 
		CHANNELS 3 Zrotation Xrotation Yrotation
		JOINT LeftKnee
		{
			OFFSET 0.000000 -0.402270 0.000000 
			CHANNELS 1 Zrotation
			JOINT LeftAnkle
			{
				OFFSET 0.000000 -0.404085 0.000000 
				CHANNELS 3 Zrotation Xrotation Yrotation
				End Site
				{
					OFFSET 0.204105 -0.089430 -0.008415 
				}
			}
		}
	}
}
MOTION
Frames: 31
Frame Time: 0.02
0 0.95578 0 180.04552 0 -4.40502 5.18433 4.74585 -0.36978 -29.14122 -0.07422 2.11615 23.80459 -62.25223 -66.53294 53.74948 96.15535 -73.2427 -6.5676 34.8206 61.19635 52.93155 56.21977 -92.62129 -73.28134 6.36068 1.12973 6.48485 -6.69524 -10.28826 3.26781 -4.50585 -9.91215 0.31889 3.66973 2.4885 -5.50728 5.81394 4.66193 7.68419
-0.0006 0.9558 -0.00013 180.15031 0 -4.39516 5.23786 4.7433 -0.41366 -29.17406 -0.05752 2.0486 23.36321 -62.08899 -66.68737 56.16391 92.88711 -73.64174 -9.64463 34.30729 61.02526 53.46104 58.3041 -90.21628 -73.61798 8.93926 1.08023 6.48286 -6.81319 -10.28095 3.26341 -4.50088 -9.90533 0.30271 3.66315 2.32689 -5.51903 5.81782 4.67717 7.74323
-0.00119 0.95581 -0.00027 180.25434 0 -4.38535 5.29136 4.74074 -0.45708 -29.20721 -0.0407 1.98194 22.92418 -61.92826 -66.84043 58.56643 89.64434 -74.03767 -12.69768 33.79793 60.85498 53.98531 60.37842 -87.82925 -73.95226 11.50028 1.03092 6.48093 -6.93008 -10.2737 3.25911 -4.49604 -9.89868 0.28655 3.65665 2.16636 -5.53084 5.82176 4.69241 7.80194
-0.00179 0.95582 -0.0004 180.35609 0 -4.3757 5.34525 4.73816 -0.49883 -29.2422 -0.02316 1.91837 22.48886 -61.77633 -66.99136 60.94352 86.47382 -74.42481 -15.68297 33.29928 60.68593 54.49492 62.43384 -85.48891 -74.28032 14.01637 0.98187 6.47924 -7.04391 -10.26641 3.25501 -4.49166 -9.89238 0.27019 3.65039 2.00896 -5.5427 5.8259 4.70781 7.85983
-0.00239 0.95584 -0.00053 180.4696 0 -4.36526 5.39707 4.73575 -0.54909 -29.2678 -0.00932 1.83864 22.03225 -61.57819 -67.15581 63.45373 82.92328 -74.85822 -19.02494 32.74382 60.50995 55.08347 64.59036 -82.89912 -74.64126 16.77066 0.9314 6.47629 -7.17398 -10.25907 3.24962 -4.48481 -9.8839 0.25472 3.64282 1.83546 -5.55396 5.8289 4.72239 7.92198
-0.00298 0.95585 -0.00067 180.55836 0 -4.35646 5.45321 4.73294 -0.58153 -29.31299 0.01224 1.79306 21.62225 -61.47775 -67.28997 65.68092 80.17824 -75.19355 -21.6107 32.30914 60.34909 55.50357 66.53025 -80.84095 -74.93232 19.01827 0.88404 6.47601 -7.26956 -10.25206 3.24711 -4.48323 -9.88024 0.23749 3.63804 1.69587 -5.5667 5.83438 4.73867 7.97508
-0.00355 0.95586 -0.00081 180.57666 0 -4.35239 5.52326 4.72934 -0.56179 -29.41726 0.05723 1.8449 21.32445 -61.65625 -67.35405 67.1513 79.67878 -75.25568 -22.08985 32.20765 60.22438 55.46053 67.90933 -80.23503 -75.03117 19.87863 0.84376 6.48333 -7.26907 -10.24396 3.25163 -4.4965 -9.88872 0.21381 3.64103 1.65198 -5.58231 5.84646 4.76033 8.00357
-0.00411 0.95587 -0.00097 180.57037 0 -4.34993 5.59734 4.72528 -0.52457 -29.54041 0.10972 1.93072 21.07623 -61.93182 -67.38517 68.33299 79.98827 -75.21929 -21.80922 32.22804 60.11564 55.24701 69.0642 -80.16773 -75.05942 20.22614 0.80685 6.49333 -7.23395 -10.23652 3.25922 -4.51507 -9.90226 0.18861 3.64683 1.6419 -5.59963 5.86111 4.78359 8.02289
-0.00467 0.95588 -0.00112 180.57674 0 -4.34659 5.66839 4.72122 -0.49727 -29.6519 0.15741 1.99903 20.81593 -62.15739 -67.42254 69.63257 79.91314 -75.22962 -21.8889 32.19277 60.00335 55.11007 70.29923 -79.86403 -75.1196 20.80165 0.76934 6.50199 -7.21517 -10.2301 3.266 -4.53107 -9.91432 0.16511 3.65131 1.61495 -5.61703 5.87479 4.8057 8.04618
-0.00526 0.95589 -0.00126 180.57689 0 -4.34385 5.74458 4.71802 -0.46169 -29.77672 0.21079 2.07599 20.51229 -62.40815 -67.49653 70.98832 79.90907 -75.23183 -21.90599 32.15867 59.87625 54.97689 71.62648 -79.52643 -75.18043 21.39873 0.72792 6.51116 -7.19368 -10.21822 3.2703 -4.54776 -9.92305 0.1374 3.65598 1.59431 -5.63094 5.88765 4.82962 8.07024
-0.00578 0.9559 -0.00142 180.58412 0 -4.34026 5.81088 4.71294 -0.43914 -29.87783 0.25433 2.1431 20.30978 -62.62904 -67.48667 72.1582 79.95015 -75.22739 -21.87177 32.15111 59.78275 54.79541 72.70751 -79.3857 -75.22308 21.82861 0.6954 6.5199 -7.1698 -10.21773 3.2805 -4.56427 -9.93973 0.11804 3.66091 1.56863 -5.65236 5.90278 4.85014 8.0906
-0.00614 0.95589 -0.00163 180.6171 0 -4.33396 5.85029 4.70261 -0.45747 -29.91252 0.26689 2.1738 20.38211 -62.74793 -67.25088 72.88848 79.90902 -75.23012 -21.89285 32.18659 59.78712 54.5218 73.17144 -79.67203 -75.23352 21.92661 0.68702 6.527 -7.14624 -10.24972 3.30619 -4.5791 -9.97873 0.12258 3.66595 1.51876 -5.6955 5.9238 4.86112 8.10388
-0.00645 0.95587 -0.00185 180.65798 0 -4.32675 5.87934 4.69044 -0.48941 -29.92206 0.26964 2.19356 20.55307 -62.83269 -66.93214 73.44081 79.88732 -75.22929 -21.88644 32.24461 59.82324 54.20546 73.39359 -80.13611 -75.22794 21.87309 0.68741 6.53356 -7.12174 -10.29292 3.33769 -4.59353 -10.02523 0.13548 3.6711 1.46207 -5.74586 5.94689 4.86873 8.11459
-0.00678 0.95586 -0.00207 180.69516 0 -4.31993 5.91222 4.67921 -0.51473 -29.94067 0.27821 2.21895 20.67375 -62.9302 -66.65321 74.07308 79.86217 -75.22917 -21.8855 32.29267 59.83866 53.90909 73.72168 -80.50738 -75.22926 21.88637 0.68353 6.54024 -7.0987 -10.33023 3.36657 -4.60807 -10.06723 0.14428 3.6762 1.41102 -5.79204 5.96891 4.8775 8.12465
-0.00711 0.95585 -0.00229 180.73209 0 -4.31326 5.94894 4.66748 -0.5413 -29.96972 0.28136 2.24284 20.81904 -63.04245 -66.36491 74.70056 79.84135 -75.22949 -21.88795 32.34402 59.88034 53.60484 74.05982 -80.94373 -75.22981 21.89118 0.68098 6.54751 -7.07015 -10.37097 3.39554 -4.62314 -10.11408 0.15436 3.68157 1.35433 -5.8422 5.99179 4.88719 8.138
-0.00742 0.95583 -0.0025 180.77157 0 -4.30606 5.97517 4.65642 -0.56869 -29.97102 0.29327 2.26668 20.93604 -63.11503 -66.07597 75.29783 79.80709 -75.22928 -21.88637 32.392 59.87561 53.30861 74.32095 -81.28538 -75.22898 21.88339 0.67767 6.55341 -7.05322 -10.40714 3.42557 -4.63692 -10.15248 0.16368 3.68614 1.30241 -5.88561 6.01304 4.89502 8.14911
-0.00763 0.95579 -0.0027 180.81765 0 -4.2975 5.97484 4.6473 -0.59554 -29.89979 0.33266 2.29389 20.94874 -63.0827 -65.81345 75.87049 79.71478 -75.22935 -21.88688 32.42703 59.72682 53.04944 74.44334 -81.27097 -75.2295 21.88841 0.67032 6.55558 -7.0696 -10.42857 3.45774 -4.64725 -10.16614 0.16986 3.69072 1.31048 -5.90987 6.0321 4.89073 8.10804
-0.00781 0.95574 -0.00289 180.86584 0 -4.28847 5.96431 4.63901 -0.62274 -29.80175 0.38098 2.3211 20.92956 -63.01199 -65.55208 76.41721 79.60752 -75.22935 -21.88693 32.4569 59.53174 52.79977 74.49515 -81.16198 -75.22933 21.88669 0.66185 6.55639 -7.09772 -10.44487 3.49062 -4.65625 -10.17092 0.17483 3.69417 1.31717 -5.92689 6.04904 4.88578 8.07138
-0.008 0.9557 -0.00308 180.91222 0 -4.27974 5.95851 4.6306 -0.64952 -29.71724 0.4246 2.34753 20.92623 -62.96062 -65.28483 76.96758 79.51328 -75.22933 -21.88675 32.48736 59.36298 52.54377 74.57046 -81.12699 -75.229 21.88357 0.65375 6.55786 -7.11997 -10.46315 3.52277 -4.66582 -10.17948 0.17966 3.69652 1.29199 -5.94633 6.06493 4.88669 8.06607
-0.00819 0.95566 -0.00328 180.96251 0 -4.27061 5.95195 4.62102 -0.67789 -29.62628 0.47066 2.37683 20.92114 -62.89952 -65.03624 77.54702 79.39275 -75.22935 -21.88687 32.52625 59.17272 52.29492 74.67254 -80.96741 -75.23001 21.89321 0.64659 6.5591 -7.14431 -10.48343 3.55693 -4.67558 -10.18941 0.18756 3.70523 1.39492 -5.96948 6.08887 4.86546 7.9288
-0.00839 0.95562 -0.00347 181.00497 0 -4.26224 5.94468 4.61412 -0.70282 -29.54262 0.51383 2.40035 20.91022 -62.85073 -64.75146 78.06073 79.32458 -75.22934 -21.88683 32.54583 59.01625 52.03369 74.70636 -81.04269 -75.22834 21.87732 0.63703 6.56053 -7.16722 -10.49803 3.58688 -4.68454 -10.19423 0.18884 3.70099 1.24189 -5.98337 6.09618 4.88842 8.05624
-0.0086 0.9556 -0.00363 181.02614 0 -4.2558 5.93794 4.61423 -0.71842 -29.48653 0.5472 2.40729 20.896 -62.83892 -64.35547 78.41237 79.39073 -75.22934 -21.88685 32.51491 58.9604 51.73944 74.56157 -81.78574 -75.21905 21.78893 0.62146 6.56254 -7.18231 -10.4994 3.60606 -4.69237 -10.18763 0.17071 3.65613 0.28504 -5.97087 6.05233 5.04943 9.01197
-0.00882 0.95558 -0.00379 181.03916 0 -4.2502 5.93087 4.61704 -0.73044 -29.43864 0.57731 2.40856 20.87566 -62.84198 -63.92539 78.69728 79.51259 -75.22935 -21.88689 32.46435 58.94059 51.43219 74.35342 -82.76753 -75.20725 21.67666 0.60341 6.56483 -7.19565 -10.495 3.62078 -4.69932 -10.17613 0.14615 3.59914 -0.91247 -5.94965 5.99279 5.25219 10.21698
-0.00904 0.95556 -0.00395 181.05534 0 -4.24441 5.924 4.61878 -0.74387 -29.38657 0.60873 2.4129 20.8542 -62.84285 -63.51865 79.00502 79.61782 -75.22935 -21.8869 32.42154 58.90696 51.12851 74.18002 -83.64245 -75.19693 21.57844 0.58618 6.56717 -7.21059 -10.49234 3.63682 -4.70618 -10.16639 0.12552 3.55116 -1.93423 -5.93422 5.94434 5.42517 11.24159
-0.00925 0.95554 -0.00412 181.07392 0 -4.23782 5.91657 4.61998 -0.75822 -29.33556 0.64124 2.41519 20.84776 -62.8239 -63.07914 79.34317 79.68557 -75.22935 -21.88693 32.38329 58.86161 50.83405 73.97773 -84.51 -75.18512 21.46606 0.5701 6.56874 -7.22298 -10.49306 3.65581 -4.71499 -10.15801 0.10082 3.4887 -3.23085 -5.91124 5.87955 5.6429 12.54404
-0.00947 0.95553 -0.00427 181.08548 0 -4.23306 5.91032 4.62283 -0.7698 -29.28452 0.67051 2.42034 20.80947 -62.84927 -62.69933 79.60275 79.84518 -75.22935 -21.88695 32.33124 58.84896 50.51839 73.82294 -85.44745 -75.17587 21.37802 0.55117 6.57195 -7.23958 -10.48564 3.66766 -4.71963 -10.14613 0.08282 3.4531 -4.01895 -5.90151 5.84456 5.77841 13.33402
-0.00969 0.95553 -0.00438 181.08022 0 -4.23374 5.9079 4.63037 -0.77447 -29.23273 0.69236 2.43526 20.68036 -63.00184 -62.49684 79.66089 80.24217 -75.22935 -21.88695 32.2428 58.9256 50.13689 73.80355 -86.5499 -75.17394 21.3596 0.524 6.58007 -7.27279 -10.45542 3.66026 -4.7123 -10.12246 0.08717 3.49832 -3.28452 -5.93483 5.90043 5.66748 12.58628
-0.0099 0.95553 -0.00447 181.06805 0 -4.23616 5.90663 4.63934 -0.77648 -29.18051 0.71085 2.4531 20.52018 -63.19685 -62.35485 79.6432 80.73046 -75.22935 -21.88695 32.14137 59.03274 49.73623 73.8368 -87.71014 -75.17473 21.36707 0.49421 6.58976 -7.3095 -10.41752 3.64595 -4.70091 -10.09598 0.09808 3.57033 -2.04086 -5.98106 5.98601 5.47405 11.32543
-0.01012 0.95553 -0.00458 181.05866 0 -4.2374 5.90461 4.64707 -0.77979 -29.12777 0.73041 2.46932 20.37752 -63.36745 -62.18241 79.66015 81.17852 -75.22936 -21.88695 32.04841 59.12094 49.35145 73.85348 -88.8233 -75.17454 21.36513 0.46626 6.59845 -7.34139 -10.38431 3.63523 -4.69184 -10.07315 0.10443 3.62761 -1.06961 -6.01852 6.05489 5.32445 10.34022
-0.01034 0.95553 -0.00468 181.05052 0 -4.24026 5.9036 4.65729 -0.78262 -29.07835 0.75195 2.48677 20.22111 -63.56133 -62.02116 79.67147 81.62237 -75.22935 -21.88694 31.94544 59.23152 48.93677 73.83612 -90.02891 -75.17326 21.35287 0.43554 6.60832 -7.38633 -10.34596 3.62247 -4.68079 -10.04058 0.1171 3.69513 0.06528 -6.06775 6.13658 5.1497 9.18554
-0.01055 0.95553 -0.00478 181.03824 0 -4.2402 5.90069 4.66274 -0.78582 -29.02175 0.76842 2.5022 20.08501 -63.71516 -61.85153 79.68055 82.09697 -75.22935 -21.88694 31.85857 59.30263 48.57897 73.90393 -91.05724 -75.17485 21.36799 0.40992 6.61614 -7.4056 -10.31639 3.61233 -4.67284 -10.02714 0.11841 3.74798 0.98466 -6.09589 6.19903 5.00702 8.2574
